<?xml version="1.0" encoding="UTF-8"?>
<svg xmlns="http://www.w3.org/2000/svg" xmlns:xlink="http://www.w3.org/1999/xlink" width="64pt" height="64pt" viewBox="0 0 64 64" version="1.1">
<g id="surface15089594">
<path style=" stroke:none;fill-rule:nonzero;fill:rgb(100%,100%,100%);fill-opacity:1;" d="M 25 39.71875 L 25 24.28125 C 25 22.589844 26.859375 21.484375 28.363281 22.242188 L 41.738281 29.960938 C 43.40625 30.800781 43.425781 33.199219 41.757812 34.039062 L 28.351562 41.757812 C 26.847656 42.515625 25 41.410156 25 39.71875 Z M 25 39.71875 "/>
<path style=" stroke:none;fill-rule:nonzero;fill:rgb(100%,100%,100%);fill-opacity:1;" d="M 32 6 C 17.664062 6 6 17.664062 6 32 C 6 46.335938 17.664062 58 32 58 C 46.335938 58 58 46.335938 58 32 C 58 17.664062 46.335938 6 32 6 Z M 32 56 C 18.765625 56 8 45.234375 8 32 C 8 18.765625 18.765625 8 32 8 C 45.234375 8 56 18.765625 56 32 C 56 45.234375 45.234375 56 32 56 Z M 32 56 "/>
<path style=" stroke:none;fill-rule:nonzero;fill:rgb(100%,100%,100%);fill-opacity:1;" d="M 42.238281 29.097656 L 28.8125 21.351562 C 27.78125 20.832031 26.570312 20.890625 25.570312 21.507812 C 24.585938 22.109375 24 23.148438 24 24.28125 L 24 39.71875 C 24 40.855469 24.585938 41.894531 25.570312 42.496094 C 26.105469 42.828125 26.703125 42.996094 27.3125 42.996094 C 27.828125 42.996094 28.355469 42.875 28.851562 42.625 L 42.210938 34.933594 C 43.3125 34.375 44 33.257812 44 32.015625 C 44 30.761719 43.304688 29.632812 42.238281 29.097656 Z M 41.261719 33.171875 L 27.902344 40.863281 C 27.496094 41.066406 27.015625 41.039062 26.617188 40.792969 C 26.433594 40.679688 26 40.347656 26 39.71875 L 26 24.28125 C 26 23.65625 26.433594 23.324219 26.621094 23.207031 C 26.851562 23.066406 27.109375 22.996094 27.355469 22.996094 C 27.535156 22.996094 27.710938 23.035156 27.863281 23.109375 L 41.289062 30.855469 C 41.734375 31.078125 42 31.511719 42 32.015625 C 42 32.503906 41.742188 32.925781 41.261719 33.171875 Z M 41.261719 33.171875 "/>
</g>
</svg>
